<svg height="23" viewBox="0 0 110 23" width="110" xmlns="http://www.w3.org/2000/svg" xmlns:xlink="http://www.w3.org/1999/xlink"><mask id="a" fill="#fff"><path d="m.65263158 20.7547619-.65263158-18.07142857c0-.60238095.43508772-1.09523809 1.03333333-1.15l15.22807017-.98571428c.2975729-.03042055.5944555.06388449.8208232.26073525s.3622426.47887438.375668.77974094c.00034.01825111.00034.03651079 0 .0547619v19.71428576c0 .6048833-.4869885 1.0952381-1.0877193 1.0952381-.0181258.0003423-.0362601.0003423-.0543859 0l-14.57543862-.6571429c-.60073078 0-1.0877193-.4903548-1.0877193-1.0952381z" fill="#fff" fill-rule="evenodd"/></mask><g fill="none" fill-rule="nonzero"><path d="m29.2167501 17.8128947c-.9361385 0-1.8722771-.163421-2.7533487-.3813158-.8260046-.2723684-1.5418752-.5992105-2.1476119-1.0894736l.8810715-1.906579c1.2114735.8171053 2.5330808 1.2528948 4.0198891 1.2528948.8260046 0 1.3766743-.1089474 1.8172101-.3813158.3854688-.2723685.6057367-.5447369.6057367-1.035 0-.3813158-.1652009-.7081579-.5506697-.9260527-.3854688-.2178947-1.1013395-.4357894-2.037478-.6536842-1.1013395-.2178947-1.9824111-.4902631-2.6432147-.8171052-.6057367-.2723685-1.1013395-.6536843-1.4317413-1.0894737-.2753349-.5447369-.4405358-1.08947371-.4405358-1.74315792 0-.76263158.2202679-1.41631579.6608036-1.96105263.3854689-.59921053.9912056-1.08947369 1.7621432-1.41631579.7158706-.32684211 1.5969422-.49026316 2.5881477-.49026316.8810716 0 1.7070762.16342105 2.5330808.38131579.8260046.27236842 1.4868083.59921053 1.9273441 1.08947368l-.8810716 1.90657895c-1.1013395-.81710526-2.3128129-1.25289474-3.5793533-1.25289474-.7158706 0-1.2665403.10894737-1.6520092.43578948-.4405357.27236842-.6608036.59921052-.6608036 1.08947368 0 .27236842.1101339.54473684.2753348.7081579.110134.16342105.3854688.3268421.7709377.49026316l1.5969422.4357895c1.5969422.3268421 2.7533486.7626315 3.4141523 1.3073684.7252278.5369728 1.137047 1.3924757 1.1013395 2.2878947.0228026 1.0768247-.4921507 2.095635-1.3766743 2.7236842-.9361386.6536842-2.202679 1.035-3.8546882 1.035zm11.5640644-1.9610526.7709376-.0544737-.1101339 1.906579-1.0462725.0544737c-1.3216074 0-2.2577459-.2723685-2.8634826-.8171053-.6057367-.5447369-.8810716-1.4707895-.8810716-2.6147369v-3.268421h-1.6520092v-1.96105264h1.6520092v-2.56026315h2.6432147v2.50578947h2.202679v1.96105262h-2.202679v3.2684211c0 .9805263.4956028 1.5252631 1.4317413 1.5252631zm6.112434 1.906579c-.8810715 0-1.6520092-.1634211-2.3678798-.5447369-.6923379-.3337466-1.2677383-.8650009-1.6520092-1.5252631-.3304018-.7081579-.5506697-1.4707895-.5506697-2.3968422 0-.8715789.2202679-1.6342105.5506697-2.3423684.3842709-.6602622.9596713-1.19151653 1.6520092-1.52526313.6608037-.38131579 1.4868083-.54473684 2.3678798-.54473684.9361386 0 1.7621432.16342105 2.4229469.54473684.6923379.3337466 1.2677383.86500093 1.6520092 1.52526313.3304018.6536842.5506697 1.4707895.5506697 2.3423684 0 .9260527-.2202679 1.6886843-.5506697 2.3968422-.3842709.6602622-.9596713 1.1915165-1.6520092 1.5252631-.6608037.3813158-1.4868083.5447369-2.4229469.5447369zm0-1.9610527c1.3216074 0 1.9824111-.8715789 1.9824111-2.5057895 0-.8171052-.1652009-1.4163157-.5506697-1.8521052-.3681224-.3883229-.8954454-.5889544-1.4317414-.5447369-1.2665403 0-1.927344.7626316-1.927344 2.3968421 0 1.6342106.6608037 2.5057895 1.927344 2.5057895zm11.9495333-4.7936842-1.4868083.1634211c-.7158707.1089473-1.2665404.2723684-1.5418753.6536842-.3304018.3268421-.4956027.7626316-.4956027 1.3618421v4.4668421h-2.5881478v-8.55236844h2.5330808v1.41631584c.4405358-.98052636 1.3766743-1.52526321 2.7533487-1.63421057h.7158706l.1652009 2.17894737zm7.7093762-1.90657894h2.6432148l-5.2313625 11.60289474h-2.6982817l1.6520092-3.5952632-3.5242863-8.06210522h2.7533487l2.2026789 5.44736842 2.2026789-5.44736842zm8.8107158-.21789473c.7709376 0 1.4317413.16342105 1.982411.54473684.5506697.3268421 1.0462725.87157893 1.3766743 1.52526313.3304019.6536842.4956028 1.4707895.4956028 2.3423684 0 .871579-.1652009 1.6342106-.5506697 2.3423685-.2840125.6375717-.7415773 1.1845058-1.3216074 1.5797368-.5506697.3813158-1.2114734.5447369-1.982411.5447369-.5506698 0-1.1013395-.1089474-1.6520092-.3813158-.4405358-.2178948-.8260046-.5447369-1.1013395-1.035v1.3073684h-2.5881477v-12.31105265h2.6432147v4.90263155c.2753348-.43578944.6608037-.76263155 1.1013394-1.03499997.4956028-.21789474.9912056-.3268421 1.6520092-.3268421zm-.7709377 6.91815787c.6057367 0 1.1013395-.2178947 1.4317413-.6536842.3304019-.4357895.5506698-1.0894737.5506698-1.8521053 0-.8171052-.2202679-1.3618421-.5506698-1.7976315-.3304018-.4357895-.8260046-.5992106-1.4317413-.5992106s-1.1013394.1634211-1.4317413.5992106c-.3304018.4357894-.5506697 1.0894737-.5506697 1.7976315 0 .8171053.2202679 1.4163158.5506697 1.8521053.3304019.4357895.8260046.6536842 1.4317413.6536842zm10.407658 1.9610527c-.9361385 0-1.7621431-.1634211-2.4229468-.5447369-.6923379-.3337466-1.2677383-.8650009-1.6520092-1.5252631-.3304019-.7081579-.5506698-1.4707895-.5506698-2.3968422 0-.8715789.2202679-1.6342105.5506698-2.3423684.3842709-.6602622.9596713-1.19151653 1.6520092-1.52526313.6608037-.38131579 1.4868083-.54473684 2.4229468-.54473684.8810716 0 1.6520092.16342105 2.3678799.54473684.6923379.3337466 1.2677383.86500093 1.6520092 1.52526313.3304018.6536842.5506697 1.4707895.5506697 2.3423684 0 .9260527-.2202679 1.6886843-.5506697 2.3968422-.3842709.6602622-.9596713 1.1915165-1.6520092 1.5252631-.6608037.3813158-1.4868083.5447369-2.3678799.5447369zm0-1.9610527c1.2665404 0 1.9273441-.8715789 1.9273441-2.5057895 0-.8171052-.165201-1.4163157-.5506698-1.8521052-.3555778-.3730195-.8591303-.5722704-1.3766743-.5447369-1.3216074 0-1.982411.7626316-1.982411 2.3968421 0 1.6342106.6608036 2.5057895 1.982411 2.5057895zm9.9120552 1.9610527c-.9361385 0-1.7621431-.1634211-2.4229468-.5447369-.6923379-.3337466-1.2677383-.8650009-1.6520092-1.5252631-.3304019-.7081579-.5506698-1.4707895-.5506698-2.3968422 0-.8715789.2202679-1.6342105.5506698-2.3423684.3842709-.6602622.9596713-1.19151653 1.6520092-1.52526313.6608037-.38131579 1.4868083-.54473684 2.4229468-.54473684.8810716 0 1.6520092.16342105 2.4229468.54473684.6719878.34252001 1.2273336.87293893 1.5969423 1.52526313.3304018.6536842.5506697 1.4707895.5506697 2.3423684 0 .9260527-.2202679 1.6886843-.5506697 2.3968422-.3842709.6602622-.9596713 1.1915165-1.6520092 1.5252631-.6608037.3813158-1.4868083.5447369-2.3678799.5447369zm0-1.9610527c1.2665404 0 1.9273441-.8715789 1.9273441-2.5057895 0-.8171052-.1652009-1.4163157-.5506698-1.8521052-.3555778-.3730195-.8591303-.5722704-1.3766743-.5447369-1.3216074 0-1.982411.7626316-1.982411 2.3968421 0 1.6342106.6608036 2.5057895 1.982411 2.5057895zm15.0883507 1.8521053h-3.304018l-3.304019-3.8131579v3.8131579h-2.643215v-12.31105265h2.698282v7.40842105l3.193885-3.64973684h3.138817l-3.63442 4.08552634z" fill="#000"/><path d="m.65263158 20.7547619-.65263158-18.07142857c0-.60238095.43508772-1.09523809 1.03333333-1.15l15.22807017-.98571428c.2975729-.03042055.5944555.06388449.8208232.26073525s.3622426.47887438.375668.77974094c.00034.01825111.00034.03651079 0 .0547619v19.71428576c0 .6048833-.4869885 1.0952381-1.0877193 1.0952381-.0181258.0003423-.0362601.0003423-.0543859 0l-14.57543862-.6571429c-.60073078 0-1.0877193-.4903548-1.0877193-1.0952381z" fill="#ff4785"/><path d="m12.8894737 3.28571429.1631579-2.62857143 2.1210526-.16428572.054386 2.62857143c-.0047334.06245862-.0443289.11677156-.1020896.14003555s-.1236334.01142997-.1698402-.03051174l-.8157895-.60238095-.9245614.76666667c-.0528665.05398645-.1355572.06453406-.2001232.02552669-.064566-.03900736-.0942364-.11743771-.0718067-.18981241zm-2.7192983 5.47619047c0 .49285714 2.8824562.27380953 3.2631579 0 0-2.95714286-1.522807-4.49047619-4.35087716-4.49047619-2.88245614 0-4.45964912 1.53333333-4.45964912 3.88809524 0 4.05238099 5.43859648 4.16190479 5.43859648 6.35238099 0 .6571428-.27192982 1.0404762-.97894736 1.0404762-.87017544 0-1.19649123-.4928572-1.14210526-1.9714286 0-.3285714-3.31754386-.4380953-3.42631579 0-.27192983 3.6690476 2.0122807 4.7095238 4.62280702 4.7095238 2.50175439 0 4.51403509-1.3690476 4.51403509-3.8333333 0-4.3261905-5.54736843-4.2166667-5.54736843-6.352381 0-.87619047.65263158-.98571428 1.0877193-.98571428.32631579 0 1.08771933 0 1.03333333 1.64285714z" fill="#fff" mask="url(#a)"/></g></svg>