<?xml version="1.0" encoding="UTF-8"?>
<svg width="66px" height="24px" viewBox="0 0 66 24" version="1.1" xmlns="http://www.w3.org/2000/svg" xmlns:xlink="http://www.w3.org/1999/xlink">
    <!-- Generator: Sketch 58 (84663) - https://sketch.com -->
    <title>logo</title>
    <desc>Created with Sketch.</desc>
    <g id="Specs" stroke="none" stroke-width="1" fill="none" fill-rule="evenodd">
        <g id="Liip_Styleguide_Logo" transform="translate(-54.000000, -195.000000)" fill="#6EA644">
            <g id="logo" transform="translate(54.000000, 195.000000)">
                <g id="Liip_Logo_Green">
                    <path d="M41.5743423,0.235294118 L46.4126515,2.58823529 L35.5654744,23.6862745 L30.7271652,21.3333333 L41.5743423,0.235294118 Z M29.0883831,0.235294118 L33.848655,2.58823529 L23.001478,23.6862745 L18.1631688,21.3333333 L29.0883831,0.235294118 Z M58.5084245,1.33333333 C63.3467337,1.33333333 66,4.78431373 66,8.31372549 C66,11.8479392 63.5288097,15.1563646 58.8064981,15.2899304 L58.5084245,15.2941176 L55.2308602,15.2941176 L55.2308602,22.9803922 L49.8462903,22.9803922 L49.8462903,1.33333333 L58.5084245,1.33333333 Z M5.52113509,1.33333333 L5.52113509,18.2745098 L14.72953,18.2745098 L14.72953,22.9803922 L0.136565179,22.9803922 L0.136565179,1.33333333 L5.52113509,1.33333333 Z M58.2743127,6.11764706 L55.2308602,6.11764706 L55.2308602,10.5098039 L58.2743127,10.5098039 C59.7570204,10.5098039 60.6154301,9.41176471 60.6154301,8.31372549 C60.6154301,7.21568627 59.7570204,6.11764706 58.2743127,6.11764706 Z" id="Liip"></path>
                </g>
            </g>
        </g>
    </g>
</svg>