<svg xmlns="http://www.w3.org/2000/svg" viewBox="0 0 24 24">
    <path fill-rule="evenodd" d="M.201 21.44a.493.493 0 0 1 .006-.037c1.044-5.323 5.775-9.155 11.271-9.38V9.977H9.09c-.225 0-.443-.07-.623-.198l-1.425-.995a.99.99 0 0 1-.425-.807.99.99 0 0 1 .426-.808l1.416-.999c.181-.13.4-.2.627-.2h2.392V4.968h-3.13a.512.512 0 0 1-.522-.5V1.461c0-.277.234-.501.522-.501h3.13V.5c0-.277.234-.501.522-.501.288 0 .522.224.522.5v.46h2.914c.226 0 .446.071.622.198l1.421 1.002a.99.99 0 0 1 .426.807.99.99 0 0 1-.428.81l-1.422.993c-.18.129-.399.198-.623.198h-2.91V5.97h3.652c.288 0 .522.224.522.5v3.006c0 .277-.234.501-.522.501h-3.652v2.047c.19.008.382.02.574.037 3.24.286 6.081 1.79 8.05 4.015a.508.508 0 0 1 .187.216C22.998 18.27 23.99 20.78 24 23.497a.512.512 0 0 1-.52.503.512.512 0 0 1-.523-.5c-.009-2.449-.892-4.714-2.377-6.508h-6.151a1.745 1.745 0 0 0-1.57.8 1.6 1.6 0 0 0 0 1.706c.33.525.933.833 1.597.8h.432c1.176 0 2.273.564 2.925 1.503l.986 1.42c.16.23.095.541-.144.695a.535.535 0 0 1-.724-.14l-.986-1.42a2.501 2.501 0 0 0-2.057-1.056h-.404c-1.023.051-1.991-.443-2.519-1.286a2.567 2.567 0 0 1 0-2.738 2.787 2.787 0 0 1 2.491-1.286h5.18A11.127 11.127 0 0 0 13 13.06c-5.415-.478-10.34 2.926-11.634 7.934h5.405c.933 0 1.827.357 2.486.99l1.12 1.074c.034.032.06.062.088.1a.487.487 0 0 1-.027.708.537.537 0 0 1-.737-.026c-.044-.049-.044-.049-.067-.078a.617.617 0 0 1-.005-.006l-1.11-1.064a2.526 2.526 0 0 0-1.748-.696h-5.61a10.18 10.18 0 0 0-.119 1.505A.512.512 0 0 1 .52 24 .511.511 0 0 1 0 23.497c.003-.69.07-1.379.201-2.057zM11.943 3.966a.55.55 0 0 1 .114 0h3.375l1.43-.999-1.426-1.004H8.87v2.003h3.073zm0 5.01a.55.55 0 0 1 .114 0h3.595V6.971H9.086l-.005.003-1.423 1 1.432 1h2.853z"/>
</svg>
